<?xml version="1.0" encoding="utf-8"?>
<!-- Generator: Adobe Illustrator 24.1.2, SVG Export Plug-In . SVG Version: 6.00 Build 0)  -->
<svg version="1.1" id="Capa_1" xmlns="http://www.w3.org/2000/svg" xmlns:xlink="http://www.w3.org/1999/xlink" x="0px" y="0px"
	 viewBox="0 0 390 475.8" style="enable-background:new 0 0 390 475.8;" xml:space="preserve">
<g>
	<path d="M385.6,115.6L265.6,4.1C262.8,1.5,259,0,255,0H45C20.2,0,0,18.8,0,41.8v392.1c0,23.1,20.2,41.8,45,41.8h300
		c24.8,0,45-18.8,45-41.8V125.4C390,121.6,388.3,118.1,385.6,115.6z M270,47.6l68.8,63.9H285c-8.3,0-15-6.3-15-13.9V47.6z
		 M345,447.9H45c-8.3,0-15-6.3-15-13.9V41.8c0-7.7,6.7-13.9,15-13.9h195v69.7c0,23.1,20.2,41.8,45,41.8h75v294.6
		C360,441.6,353.3,447.9,345,447.9z"/>
</g>
</svg>
