<?xml version="1.0" encoding="utf-8"?>
<!-- Generator: Adobe Illustrator 24.1.2, SVG Export Plug-In . SVG Version: 6.00 Build 0)  -->
<svg version="1.1" id="Capa_1" xmlns="http://www.w3.org/2000/svg" xmlns:xlink="http://www.w3.org/1999/xlink" x="0px" y="0px"
	 viewBox="0 0 60 49" style="enable-background:new 0 0 60 49;" xml:space="preserve">
<path d="M57.5,16H54V9.7C54,8.2,52.8,7,51.3,7H26.5l-5-7H2.7C1.2,0,0,1.2,0,2.7v43.7h0C0,47,0.2,47.5,0.5,48c0.5,0.6,1.2,1,2,1h44.8
	c1.2,0,2.2-0.8,2.5-1.8l10.2-28V19C60,17.2,58.9,16,57.5,16z M2,2.7C2,2.3,2.3,2,2.7,2h17.8l5,7h25.8C51.7,9,52,9.3,52,9.7V16H12.7
	c-0.1,0-0.3,0-0.4,0c-1,0.2-1.8,0.9-2,1.8L2,40.4V2.7z M47.9,46.6c-0.1,0.2-0.3,0.4-0.5,0.4H2.6c-0.2,0-0.4-0.1-0.4-0.2
	C2.1,46.7,2,46.5,2,46.4l10.2-28c0.1-0.2,0.3-0.4,0.5-0.4H54h3.5c0.4,0,0.5,0.5,0.5,0.8L47.9,46.6z"/>
</svg>
