<?xml version="1.0" encoding="utf-8"?>
<!-- Generator: Adobe Illustrator 16.0.0, SVG Export Plug-In . SVG Version: 6.00 Build 0)  -->
<!DOCTYPE svg PUBLIC "-//W3C//DTD SVG 1.1//EN" "http://www.w3.org/Graphics/SVG/1.1/DTD/svg11.dtd">
<svg version="1.1" id="Capa_1" xmlns="http://www.w3.org/2000/svg" xmlns:xlink="http://www.w3.org/1999/xlink" x="0px" y="0px"
	 width="315.244px" height="207px" viewBox="103.738 157 315.244 207" enable-background="new 103.738 157 315.244 207"
	 xml:space="preserve">
<g>
	<path fill="none" d="M295.698,314.259c6.167,2.27,12.831,3.512,19.784,3.512c31.631,0,57.271-25.641,57.271-57.271
		c0-31.629-25.641-57.27-57.271-57.27c-6.953,0-13.617,1.242-19.784,3.512c9.543,15.668,15.04,34.071,15.04,53.758
		C310.738,280.188,305.241,298.59,295.698,314.259z"/>
	<path fill="none" d="M220.109,186.585c-4.185-0.724-8.48-1.123-12.871-1.123c-41.442,0-75.037,33.596-75.037,75.038
		c0,41.442,33.595,75.037,75.037,75.037c4.391,0,8.687-0.397,12.871-1.121c-15.85-20.422-25.291-46.065-25.291-73.916
		C194.818,232.649,204.26,207.006,220.109,186.585z"/>
	<path fill="none" d="M272.221,222.997c-8.72,10.049-14.009,23.154-14.009,37.503c0,14.349,5.289,27.455,14.009,37.504
		c6.384-11.037,10.055-23.838,10.055-37.504S278.604,234.033,272.221,222.997z"/>
	<path fill="#FFFFFF" d="M220.109,334.416c-4.185,0.724-8.48,1.121-12.871,1.121c-41.442,0-75.037-33.595-75.037-75.037
		c0-41.442,33.595-75.038,75.037-75.038c4.391,0,8.687,0.399,12.871,1.123c6.748-8.694,14.655-16.442,23.495-23.008
		c-11.315-4.248-23.568-6.577-36.366-6.577c-57.162,0-103.5,46.338-103.5,103.5c0,57.161,46.338,103.5,103.5,103.5
		c12.798,0,25.051-2.33,36.366-6.577C234.765,350.857,226.857,343.109,220.109,334.416z"/>
	<path fill="#FFFFFF" d="M272.221,222.997c6.384,11.036,10.055,23.837,10.055,37.503s-3.671,26.467-10.055,37.504
		c6.275,7.231,14.321,12.884,23.478,16.255c9.543-15.669,15.04-34.071,15.04-53.759c0-19.687-5.497-38.089-15.04-53.758
		C286.542,210.113,278.496,215.765,272.221,222.997z"/>
	<path fill="#FFFFFF" d="M295.698,314.259c-9.156-3.371-17.202-9.023-23.478-16.255c-10.923,18.885-29.829,32.558-52.111,36.412
		c6.748,8.693,14.655,16.441,23.495,23.007C265.42,349.234,283.737,333.897,295.698,314.259z"/>
	<path fill="none" d="M249.346,225.037c-5.676,10.561-8.901,22.634-8.901,35.463s3.226,24.902,8.901,35.464
		c7.706-9.756,12.318-22.067,12.318-35.464C261.664,247.103,257.052,234.792,249.346,225.037z"/>
	<path fill="none" d="M300.117,333.957c4.961,1.032,10.099,1.58,15.365,1.58c41.442,0,75.038-33.595,75.038-75.037
		c0-41.441-33.596-75.038-75.038-75.038c-5.267,0-10.404,0.548-15.365,1.581c15.637,20.346,24.939,45.813,24.939,73.457
		S315.754,313.611,300.117,333.957z"/>
	<path fill="none" d="M226.482,207.65c-6.799-2.844-14.26-4.42-22.09-4.42c-31.628,0-57.27,25.641-57.27,57.27
		c0,31.63,25.642,57.271,57.27,57.271c7.83,0,15.292-1.575,22.09-4.42c-9.207-15.471-14.501-33.541-14.501-52.851
		C211.981,241.191,217.275,223.121,226.482,207.65z"/>
	<path fill="#FFFFFF" d="M249.346,225.037c-5.985-7.575-13.833-13.607-22.863-17.387c-9.207,15.47-14.501,33.541-14.501,52.85
		c0,19.31,5.294,37.38,14.501,52.851c9.031-3.779,16.879-9.812,22.863-17.387c-5.676-10.562-8.901-22.635-8.901-35.464
		S243.67,235.598,249.346,225.037z"/>
	<path fill="#FFFFFF" d="M315.482,157c-13.512,0-26.418,2.593-38.251,7.302c8.605,6.526,16.306,14.18,22.886,22.741
		c4.961-1.032,10.099-1.581,15.365-1.581c41.442,0,75.038,33.596,75.038,75.038c0,41.442-33.596,75.037-75.038,75.037
		c-5.267,0-10.404-0.548-15.365-1.58c-6.58,8.562-14.279,16.216-22.885,22.741c11.832,4.709,24.738,7.302,38.25,7.302
		c57.162,0,103.5-46.339,103.5-103.5C418.982,203.338,372.645,157,315.482,157z"/>
	<path fill="#FFFFFF" d="M226.482,207.65c9.03,3.779,16.878,9.812,22.863,17.387c10.328-19.219,28.783-33.417,50.771-37.994
		c-6.58-8.562-14.28-16.215-22.886-22.741C255.914,172.785,238.086,188.149,226.482,207.65z"/>
</g>
</svg>
